<?xml version="1.0" encoding="utf-8"?>
<!-- Generator: Adobe Illustrator 22.1.0, SVG Export Plug-In . SVG Version: 6.00 Build 0)  -->
<svg version="1.1" id="图层_1" xmlns="http://www.w3.org/2000/svg" xmlns:xlink="http://www.w3.org/1999/xlink" x="0px" y="0px"
	 viewBox="0 0 65 55" style="enable-background:new 0 0 65 55;" xml:space="preserve">
<style type="text/css">
	.st0{fill-rule:evenodd;clip-rule:evenodd;fill:none;stroke:#066DA5;stroke-width:2;stroke-miterlimit:10;}
	.st1{fill:none;stroke:#066DA5;stroke-width:7;stroke-miterlimit:10;}
	.st2{fill:#FFFFFF;}
	.st3{font-family:'Consolas';}
	.st4{font-size:7px;}
	.st5{fill:#066DA5;}
	.st6{fill:none;}
	.st7{fill:none;stroke:#000000;stroke-width:2;stroke-miterlimit:10;}
	.st8{fill:none;stroke:#FF0000;stroke-miterlimit:10;}
</style>
<circle class="st0" cx="33.4" cy="21.6" r="19.6"/>
<line class="st1" x1="19.2" y1="35.8" x2="3.5" y2="51.5"/>
<path class="st2" d="M87,20.9V29h-3.2c0,0,3.2-1.4,1.4-2.4c-1.4-0.7-1.2-2.5-0.8-3.8c0.2-0.7,0.7-1.2,1.3-1.6
	C86.5,20.9,87,20.9,87,20.9z M87,20.9V29h3.2c0,0-3.2-1.4-1.4-2.4c1.4-0.7,1.2-2.5,0.8-3.8c-0.2-0.7-0.7-1.2-1.3-1.6
	C87.5,20.9,87,20.9,87,20.9z"/>
<text transform="matrix(1 0 0 1 49 5.75)"><tspan x="0" y="0" class="st3 st4">1</tspan><tspan x="3.8" y="0" class="st5 st3 st4">0</tspan><tspan x="7.7" y="0" class="st3 st4">1</tspan><tspan x="11.5" y="0" class="st5 st3 st4">0</tspan></text>
<text transform="matrix(1 0 0 1 49 41.75)"><tspan x="0" y="0" class="st3 st4">1</tspan><tspan x="3.8" y="0" class="st5 st3 st4">0</tspan><tspan x="7.7" y="0" class="st3 st4">1</tspan><tspan x="11.5" y="0" class="st5 st3 st4">0</tspan></text>
<text transform="matrix(1 0 0 1 26 47.749)"><tspan x="0" y="0" class="st5 st3 st4">0</tspan><tspan x="3.8" y="0" class="st3 st4">1</tspan><tspan x="7.7" y="0" class="st5 st3 st4">0</tspan><tspan x="11.5" y="0" class="st3 st4">1</tspan><tspan x="15.4" y="0" class="st5 st3 st4">0</tspan><tspan x="19.2" y="0" class="st3 st4">1</tspan><tspan x="23.1" y="0" class="st5 st3 st4">0</tspan><tspan x="26.9" y="0" class="st3 st4">1</tspan><tspan x="30.8" y="0" class="st5 st3 st4">0</tspan><tspan x="34.6" y="0" class="st3 st4">1</tspan></text>
<text transform="matrix(1 0 0 1 26 53.749)"><tspan x="0" y="0" class="st5 st3 st4">0</tspan><tspan x="3.8" y="0" class="st3 st4">1</tspan><tspan x="7.7" y="0" class="st5 st3 st4">0</tspan><tspan x="11.5" y="0" class="st3 st4">1</tspan><tspan x="15.4" y="0" class="st5 st3 st4">0</tspan><tspan x="19.2" y="0" class="st3 st4">1</tspan><tspan x="23.1" y="0" class="st5 st3 st4">0</tspan><tspan x="26.9" y="0" class="st3 st4">1</tspan><tspan x="30.8" y="0" class="st5 st3 st4">0</tspan><tspan x="34.6" y="0" class="st3 st4">1</tspan></text>
<text transform="matrix(1 0 0 1 10.3027 53.749)"><tspan x="0" y="0" class="st5 st3 st4">0</tspan><tspan x="3.8" y="0" class="st3 st4">1</tspan><tspan x="7.7" y="0" class="st5 st3 st4">0</tspan><tspan x="11.5" y="0" class="st3 st4">1</tspan></text>
<text transform="matrix(1 0 0 1 49 17.75)"><tspan x="0" y="0" class="st6 st3 st4">10</tspan><tspan x="7.7" y="0" class="st3 st4">1</tspan><tspan x="11.5" y="0" class="st5 st3 st4">0</tspan></text>
<text transform="matrix(1 0 0 1 49 23.75)"><tspan x="0" y="0" class="st6 st3 st4">10</tspan><tspan x="7.7" y="0" class="st3 st4">1</tspan><tspan x="11.5" y="0" class="st5 st3 st4">0</tspan></text>
<text transform="matrix(1 0 0 1 49 29.75)"><tspan x="0" y="0" class="st6 st3 st4">10</tspan><tspan x="7.7" y="0" class="st3 st4">1</tspan><tspan x="11.5" y="0" class="st5 st3 st4">0</tspan></text>
<text transform="matrix(1 0 0 1 53 11.75)"><tspan x="0" y="0" class="st3 st4">1</tspan><tspan x="3.8" y="0" class="st5 st3 st4">0</tspan><tspan x="7.7" y="0" class="st3 st4">1</tspan></text>
<text transform="matrix(1 0 0 1 53 35.75)"><tspan x="0" y="0" class="st3 st4">1</tspan><tspan x="3.8" y="0" class="st5 st3 st4">0</tspan><tspan x="7.7" y="0" class="st3 st4">1</tspan></text>
<g>
	<path d="M39,35.8H28.2c-2.2,0-4-1.8-4-4V21.1c0-2.2,1.8-4,4-4H39c2.2,0,4,1.8,4,4v10.7C43,34,41.2,35.8,39,35.8z"/>
	<path class="st7" d="M26.9,18.8c-1.2-3-0.8-6.4,1-8.6c2.8-3.4,8.3-3.4,11,0c1.8,2.2,2.2,5.6,1,8.6"/>
	<circle class="st8" cx="33.5" cy="26.5" r="6.5"/>
	<circle class="st8" cx="33.5" cy="26.5" r="3"/>
	<line class="st8" x1="25.5" y1="26.5" x2="41.5" y2="26.5"/>
	<line class="st8" x1="33.5" y1="18.5" x2="33.5" y2="34"/>
</g>
</svg>
